PathFileType	4	(X/Y/Z)	/Users/niels/Desktop/University/Third Semester/Perception and Action/Exam/Gymnastics Motion Tracking/Code for Gym Tracking/Analyzed Data/Webcam_Backflip/id2001_1_baseline_Sports2D/id2001_1_baseline_Sports2D_px_person00.trc
DataRate	CameraRate	NumFrames	NumMarkers	Units	OrigDataRate	OrigDataStartFrame	OrigNumFrames
29.884169884169886	29.884169884169886	11	22	m	29.884169884169886	226	259
Frame#	Time	Hip			RHip			RKnee			RAnkle			RBigToe			RSmallToe			RHeel			LHip			LKnee			LAnkle			LBigToe			LSmallToe			LHeel			Neck			Head			Nose			RShoulder			RElbow			RWrist			LShoulder			LElbow			LWrist		
		X1	Y1	Z1	X2	Y2	Z2	X3	Y3	Z3	X4	Y4	Z4	X5	Y5	Z5	X6	Y6	Z6	X7	Y7	Z7	X8	Y8	Z8	X9	Y9	Z9	X10	Y10	Z10	X11	Y11	Z11	X12	Y12	Z12	X13	Y13	Z13	X14	Y14	Z14	X15	Y15	Z15	X16	Y16	Z16	X17	Y17	Z17	X18	Y18	Z18	X19	Y19	Z19	X20	Y20	Z20	X21	Y21	Z21	X22	Y22	Z22
226	7.562532299741602	0.9425053246186917	-0.7071636177761145	0.0	0.9462189890353293	-0.7173363592060004	0.0	1.2648426800322043	-0.9513621950569019	0.0	1.2119633139113024	-1.0881589399138287	0.0	1.243567911782555	-1.0507400207812467	0.0	1.246819868632369	-1.0664308047872182	0.0	1.2075351987156617	-1.0871131051735843	0.0	0.9173953742524508	-0.7339821836899671	0.0	0.9659513947459846	-1.0676051732342609	0.0	1.010873755257001	-1.0706103181554125	0.0	1.5153696939837566	-0.9990801409327354	0.0	1.5138769531249987	-1.0358222656250002	0.0	0.6148691406249998	-0.9392568359375	0.0	0.9690660593443413	-0.263986026152289	0.0	1.0072127853839006	-0.07606725275516843	0.0	1.0380866107555138	-0.17421149006710163	0.0	0.942230643491566	-0.2929045835005394	0.0	0.9447662894506504	-0.532709683940173	0.0	1.1325036165822415	-0.6990592107552497	0.0	0.999559301526901	-0.31001779306760163	0.0	0.9846892913023992	-0.5341443647221071	0.0	1.1061488715622738	-0.4132203951457506	0.0
227	7.5959948320413435	0.9461524386048633	-0.7133481515895365	0.0	0.9549539155865575	-0.7226127529880088	0.0	1.2381274755288274	-0.9898397185235673	0.0	1.210386371489226	-1.0887366007968884	0.0	1.2451754881919799	-1.050625588328511	0.0	1.2480840233259707	-1.0662116124979648	0.0	1.207865000070573	-1.086916588274901	0.0	0.9151298070196258	-0.7355509697347716	0.0	0.9645261820480027	-1.066540985098233	0.0	0.9877299762744717	-1.0709341460450057	0.0	1.5153698602491315	-0.9990772792956802	0.0	1.5138769531249987	-1.0358222656250002	0.0	0.6148691406249998	-0.9392568359375	0.0	0.9672164711752297	-0.26358118186883384	0.0	1.0066043125345072	-0.07468680040447125	0.0	1.0377543896020724	-0.17253198239815623	0.0	0.943664208988613	-0.29092014257696835	0.0	0.9332754975337696	-0.5320248873715328	0.0	1.1131041391812848	-0.7108946688114856	0.0	0.9866529686886601	-0.30925615553136643	0.0	0.9738336793438068	-0.535144709347888	0.0	1.0992267456653375	-0.4366695655420937	0.0
228	7.629457364341086	0.9504178919427775	-0.7205896874062092	0.0	0.9640047550677991	-0.7287361510331374	0.0	1.2068272123484243	-1.0213059138632299	0.0	1.209793536085859	-1.0888415911208582	0.0	1.2462008272331693	-1.0505546086895594	0.0	1.248880421938438	-1.0660776021585634	0.0	1.208253438477096	-1.0867244119033055	0.0	0.9138386296560319	-0.7378561803032713	0.0	0.9638133322083879	-1.0659777570143343	0.0	0.9720897638264354	-1.0707510418624953	0.0	1.5153701299597178	-0.999072637235906	0.0	1.5138769531249987	-1.0358222656250002	0.0	0.6148691406249998	-0.9392568359375	0.0	0.9660551712903597	-0.263302947015332	0.0	1.006997184129145	-0.07328650123142634	0.0	1.0374168421906378	-0.17110575379999204	0.0	0.9455456639938369	-0.29031871581980817	0.0	0.9247526362945977	-0.5325650173879594	0.0	1.0942356751582922	-0.7242883298751339	0.0	0.9739459718907222	-0.3087718274085507	0.0	0.9667456188535511	-0.536645730439189	0.0	1.0943231543661485	-0.4764473980878242	0.0
229	7.662919896640827	0.9555017056527811	-0.7278269630158816	0.0	0.9723368462327528	-0.7354190696630468	0.0	1.1730433193729286	-1.0438045345235452	0.0	1.2097669011305336	-1.0887231336784262	0.0	1.2467091596548694	-1.0505207182455238	0.0	1.2492688449469787	-1.0660149138807828	0.0	1.2085612734758275	-1.0865858805473523	0.0	0.9149673588415389	-0.7406797144771178	0.0	0.9628761425021732	-1.0654301309893988	0.0	0.9635533202641932	-1.0703860645588024	0.0	1.5153703695990468	-0.999068512740442	0.0	1.5138769531249987	-1.0358222656250002	0.0	0.6148691406249998	-0.9392568359375	0.0	0.9657270839802476	-0.26268062138865594	0.0	1.0079342327934133	-0.07196640330317691	0.0	1.03705366432256	-0.1697047629605875	0.0	0.9475768212658422	-0.2910875058282696	0.0	0.9191350809813504	-0.5345713911723048	0.0	1.0756292676942967	-0.7378911983001646	0.0	0.9650422019511185	-0.30814335072220006	0.0	0.9641267515835464	-0.5381018273377514	0.0	1.0907023887919398	-0.5272924333951519	0.0
230	7.696382428940568	0.9613142316552507	-0.7341922505800077	0.0	0.9787958808524098	-0.7423504665617326	0.0	1.1387583429795392	-1.0575195626483824	0.0	1.209981181297829	-1.0885443989578265	0.0	1.2468669121068883	-1.05051128263716	0.0	1.2493840502525304	-1.0659985820838083	0.0	1.2087527748824025	-1.0865068726218183	0.0	0.9195075342857825	-0.7438779421002883	0.0	0.9615695095949955	-1.064571128495381	0.0	0.960252723992326	-1.0700445144811415	0.0	1.5153705321651663	-0.9990657147722369	0.0	1.5138769531249987	-1.0358222656250002	0.0	0.6148691406249998	-0.9392568359375	0.0	0.9661568238328753	-0.2615603237134863	0.0	1.00902472629702	-0.07076669866694019	0.0	1.0368539551931573	-0.16832665486170065	0.0	0.9494820313466743	-0.2931479335214557	0.0	0.9162208915119785	-0.5379728433589609	0.0	1.0572246476234526	-0.75033976587167	0.0	0.9619172127662367	-0.3072871638186815	0.0	0.965897454349897	-0.538936646754932	0.0	1.0875704026432964	-0.5830529319871209	0.0
231	7.72984496124031	0.9673019112407966	-0.739188381797755	0.0	0.9825819832721913	-0.7491638659369484	0.0	1.105719079467085	-1.0644224501863093	0.0	1.2102370943032519	-1.0883890080785965	0.0	1.2468373796477317	-1.050514487950229	0.0	1.2493553860319024	-1.0660057929795446	0.0	1.2088445824769003	-1.0864737540685108	0.0	0.9273796413692321	-0.7473536714552097	0.0	0.9608576074169493	-1.0633920186089736	0.0	0.9600041214486517	-1.0698048096727006	0.0	1.5153706190515734	-0.9990642193474508	0.0	1.5138769531249987	-1.0358222656250002	0.0	0.6148691406249998	-0.9392568359375	0.0	0.9671095409497896	-0.2601247769463621	0.0	1.0099911822499779	-0.06963881261607158	0.0	1.037044007778357	-0.16705949917089352	0.0	0.9512720427875903	-0.2961875018743928	0.0	0.9157995928084753	-0.5424534604098709	0.0	1.039824615551432	-0.7609430422178572	0.0	0.964064920677246	-0.3063661266920509	0.0	0.970999109290428	-0.5390414797720953	0.0	1.084302043110996	-0.637919695146443	0.0
232	7.763307493540052	0.97244112941647	-0.7424650854655969	0.0	0.9832953731545309	-0.7551898849927725	0.0	1.0753094693420933	-1.0670098534845396	0.0	1.210441142683297	-1.0882851813116627	0.0	1.2467385041584267	-1.0505220465947829	0.0	1.249275066452363	-1.0660207766846679	0.0	1.2088704646807247	-1.0864685148057305	0.0	0.9372325770528934	-0.7507493653641392	0.0	0.9619904818060856	-1.062010682286396	0.0	0.9610824109184435	-1.0696718080111225	0.0	1.515370651253489	-0.9990636651118238	0.0	1.5138769531249987	-1.0358222656250002	0.0	0.6148691406249998	-0.9392568359375	0.0	0.9683542753543701	-0.2586938163570635	0.0	1.0106349366651117	-0.06850325715159286	0.0	1.037661558754628	-0.16587423163846293	0.0	0.9532397365972811	-0.29963927009508967	0.0	0.917764994408389	-0.547640707050221	0.0	1.0253692546302835	-0.7701096479654561	0.0	0.9696617818754499	-0.30557632355744346	0.0	0.977626295056411	-0.5389920947259258	0.0	1.0805671852178422	-0.6867617680509782	0.0
233	7.796770025839794	0.975600119289366	-0.7436780859244138	0.0	0.9810258581302174	-0.7593997729342439	0.0	1.0485640345696052	-1.0672285100834566	0.0	1.2105687247056511	-1.0882306549446916	0.0	1.2466376824483074	-1.0505293628197763	0.0	1.2491950953750606	-1.066034926098196	0.0	1.2088621492133327	-1.086476197822257	0.0	0.9466704764103341	-0.75328608097334	0.0	0.9653854317727252	-1.060566489553935	0.0	0.9624172102150822	-1.0696186541774286	0.0	1.5153706521928028	-0.9990636489450497	0.0	1.5138769531249987	-1.0358222656250002	0.0	0.6148691406249998	-0.9392568359375	0.0	0.969744365373453	-0.25751480669130383	0.0	1.0108575131122473	-0.06729286976753578	0.0	1.0384927000255717	-0.1646100203917441	0.0	0.9556425589615318	-0.3028063087518525	0.0	0.922017061723479	-0.5530391807490331	0.0	1.016393368597845	-0.7787030046641282	0.0	0.9765600929231892	-0.30500666472371946	0.0	0.9839590335233884	-0.5395707725903592	0.0	1.0764549013694227	-0.7255599568728217	0.0
234	7.830232558139535	0.976171590686795	-0.7426904775018479	0.0	0.9765029475269253	-0.7608475241788666	0.0	1.0262352490016595	-1.0662924972503387	0.0	1.2106303169723047	-1.0882111922256845	0.0	1.246563261159406	-1.0505346049017446	0.0	1.2491368460437293	-1.0660449133045609	0.0	1.2088419605811331	-1.0864871421363962	0.0	0.9535211314809577	-0.7541269631169999	0.0	0.9704981833579914	-1.0592899274681966	0.0	0.9634970735693662	-1.0696126045460865	0.0	1.515370639973418	-0.9990638592560948	0.0	1.5138769531249987	-1.0358222656250002	0.0	0.6148691406249998	-0.9392568359375	0.0	0.9712067852022841	-0.2566500915447997	0.0	1.0106671144318624	-0.06595171290753601	0.0	1.0392096686884533	-0.1630523774708516	0.0	0.9583256353985626	-0.3050138881743126	0.0	0.9282888588679723	-0.5579281007122963	0.0	1.0150819394411303	-0.7867803445574841	0.0	0.9830157179226391	-0.3046607723347724	0.0	0.9891432324828622	-0.5410867580157498	0.0	1.0726375700568178	-0.7523303126736438	0.0
235	7.863695090439276	0.9744686820590854	-0.7398549915365309	0.0	0.9709421819138783	-0.759274226323935	0.0	1.008810729823404	-1.064984797746152	0.0	1.2106480496694811	-1.088211455288757	0.0	1.2465198184402777	-1.0505375763498577	0.0	1.2491032803822437	-1.066050487586194	0.0	1.2088223180063842	-1.0864964797125705	0.0	0.957493646120483	-0.7530075987948942	0.0	0.9766079918888462	-1.058461081802132	0.0	0.9641791811813631	-1.0696272890200271	0.0	1.5153706256191493	-0.9990641063111889	0.0	1.5138769531249987	-1.0358222656250002	0.0	0.6148691406249998	-0.9392568359375	0.0	0.9727096591605424	-0.2559674741274029	0.0	1.0100797944637707	-0.06443455568360552	0.0	1.0395672423613704	-0.16100261673676639	0.0	0.9606934874176255	-0.30576100106163007	0.0	0.9361527112104318	-0.5614127743686671	0.0	1.022605357876665	-0.7928999084021587	0.0	0.9884218533960795	-0.3045711436560456	0.0	0.9936968837121246	-0.5431475368422282	0.0	1.0704825018759014	-0.7676140707668029	0.0
236	7.897157622739019	0.9715982474998983	-0.7359991565671539	0.0	0.9656951876693023	-0.755264290086862	0.0	0.9965222004127884	-1.0638252671292157	0.0	1.2106428924105064	-1.0882197902062294	0.0	1.2465008854863278	-1.0505388087173015	0.0	1.2490889609026723	-1.0660527361466685	0.0	1.2088082008260619	-1.086502634549712	0.0	0.9604500950348656	-0.7504430874975576	0.0	0.9832561777766419	-1.0582482930334662	0.0	0.9645114841337008	-1.0696461033395732	0.0	1.5153706142566812	-0.9990643018736092	0.0	1.5138769531249987	-1.0358222656250002	0.0	0.6148691406249998	-0.9392568359375	0.0	0.9742406261742518	-0.2552642349029114	0.0	1.0090306352374654	-0.06274031402501473	0.0	1.0395189146562356	-0.15840266656450724	0.0	0.9620747283715625	-0.30487613322938906	0.0	0.9451763500830944	-0.5625584718003371	0.0	1.0388642164149067	-0.7944508668131867	0.0	0.9931513696718591	-0.30486637090830887	0.0	0.9989543614967171	-0.5449411202289892	0.0	1.071896001053347	-0.7734926932841253	0.0
